<svg xmlns="http://www.w3.org/2000/svg" viewBox="0 0 640 800">
  <rect width="640" height="800" fill="#040405" />
  <g transform="translate(80 100)">
    <path d="M120 0h240c66 0 120 54 120 120v240c0 110-90 200-200 200h-80C90 560 0 470 0 360V120C0 54 54 0 120 0z" fill="#2a2a2d" />
    <path d="M120 120h240v210c0 52-43 95-95 95h-50c-52 0-95-43-95-95V120z" fill="#f0f0f0" fill-opacity="0.08" />
    <path d="M210 70h70l28 56h-126l28-56z" fill="#fafafa" fill-opacity="0.12" />
  </g>
  <text x="320" y="760" text-anchor="middle" fill="#e4e4e4" font-family="'Segoe UI', sans-serif" font-size="48">Schwarz · Bild 3</text>
</svg>
